<svg aria-hidden="true" style="width:0;height:0;position:absolute;overflow:hidden" xmlns="http://www.w3.org/2000/svg"><defs><symbol id="icon-close-black" viewBox="0 0 32 32"><path d="m26.68 7.3-1.97-1.96-7.81 7.81-7.81-7.81L7.12 7.3l7.8 7.81-7.8 7.81 1.97 1.97 7.81-7.8 7.81 7.8 1.97-1.97-7.8-7.8 7.8-7.82z"/></symbol><symbol id="icon-loon-icon" viewBox="0 0 32 32"><path d="m8.005 19.324 1.305 1.305 6.69-6.69 6.69 6.69 1.305-1.305L16 11.372z"/></symbol><symbol id="icon-film" viewBox="0 0 32 32"><path fill="none" stroke="#fff" style="stroke:var(--color1,#fff)" stroke-linejoin="round" stroke-linecap="round" stroke-width="2.667" d="M26.427 3.605H5.574c-1.605 0-2.907 1.24-2.907 2.768v19.856c0 1.528 1.301 2.768 2.907 2.768h20.853c1.605 0 2.907-1.24 2.907-2.768V6.373c0-1.528-1.301-2.768-2.907-2.768zm-17.094 0v25.392M22.667 3.605v25.392m-20-12.696h26.667M2.667 9.953h6.667M2.667 22.649h6.667m13.333 0h6.667M22.667 9.953h6.667"/></symbol><symbol id="icon-search" viewBox="0 0 32 32"><path fill="none" stroke="#fff" style="stroke:var(--color1,#fff)" stroke-linejoin="round" stroke-linecap="round" stroke-width="2.667" d="M14.667 25.333c5.891 0 10.667-4.776 10.667-10.667S20.558 3.999 14.667 3.999v0C8.776 3.999 4 8.775 4 14.666s4.776 10.667 10.667 10.667v0zM28 28l-5.8-5.8"/></symbol><symbol id="icon-favorite" viewBox="0 0 34 32"><path fill="#ff6b08" style="fill:var(--color2,#ff6b08)" d="m17.231 31.705-2.412-2.412C5.859 21.367.001 16.025.001 9.478.001 4.136 4.136.001 9.478.001c2.929 0 5.858 1.378 7.754 3.618 1.895-2.24 4.825-3.618 7.754-3.618 5.342 0 9.477 4.135 9.477 9.477 0 6.548-5.858 11.889-14.818 19.815l-2.412 2.412z"/></symbol><symbol id="icon-arrow-left" viewBox="0 0 32 32"><path d="m12.586 27.414-10-10a2 2 0 0 1 0-2.828l10-10a2 2 0 1 1 2.828 2.828L8.828 14H28a2 2 0 1 1 0 4H8.828l6.586 6.586c.39.39.586.902.586 1.414s-.195 1.024-.586 1.414a2 2 0 0 1-2.828 0z"/></symbol><symbol id="icon-arrow-right" viewBox="0 0 32 32"><path d="m19.414 27.414 10-10a2 2 0 0 0 0-2.828l-10-10a2 2 0 1 0-2.828 2.828L23.172 14H4a2 2 0 1 0 0 4h19.172l-6.586 6.586c-.39.39-.586.902-.586 1.414s.195 1.024.586 1.414a2 2 0 0 0 2.828 0z"/></symbol><symbol id="icon-cross" viewBox="0 0 32 32"><path d="M31.708 25.708 22 16l9.708-9.708a1 1 0 0 0 0-1.414L27.122.292a1 1 0 0 0-1.414-.001L16 9.999 6.292.291a.998.998 0 0 0-1.414.001L.292 4.878a1 1 0 0 0 0 1.414L10 16 .292 25.708a.999.999 0 0 0 0 1.414l4.586 4.586a1 1 0 0 0 1.414 0L16 22l9.708 9.708a1 1 0 0 0 1.414 0l4.586-4.586a.999.999 0 0 0 0-1.414z"/></symbol><symbol id="icon-play" viewBox="0 0 32 32"><path fill="#ff6b01" style="fill:var(--color1,#ff6b01)" d="M4.687 1.937h22.625v28.126H4.687V1.937z"/><path fill="#ff6b01" style="fill:var(--color1,#ff6b01)" d="M16 1.937h11.313v28.126H16V1.937z"/><path fill="#f0f7ff" style="fill:var(--color2,#f0f7ff)" d="M16 23.5c-4.137 0-7.5-3.365-7.5-7.5s3.363-7.5 7.5-7.5 7.5 3.365 7.5 7.5-3.363 7.5-7.5 7.5z"/><path fill="#ff6b01" style="fill:var(--color1,#ff6b01)" d="M14.125 20.687v-9.375l6.249 4.687-6.249 4.687z"/><path fill="#ff6b01" style="fill:var(--color1,#ff6b01)" d="M16 19.281 20.374 16 16 12.719v6.562z"/><path fill="#f0f7ff" style="fill:var(--color2,#f0f7ff)" d="M.937 1.937h3.75v28.126H.937V1.937z"/><path fill="#dfe7f4" style="fill:var(--color3,#dfe7f4)" d="M27.313 1.937h3.75v28.126h-3.75V1.937z"/><path fill="#32393f" style="fill:var(--color4,#32393f)" d="M0 1v30h32V1H0zm3.75 28.125H1.874v-3.75h1.875v3.75zm0-5.625H1.874v-3.75h1.875v3.75zm0-5.625H1.874v-3.749h1.875v3.75zm0-5.625H1.874V8.5h1.875v3.75zm0-5.625H1.874V2.874h1.875v3.75zm22.625 22.5H5.625V2.874h20.75v26.251zm3.75 0H28.25v-3.75h1.875v3.75zm0-5.625H28.25v-3.75h1.875v3.75zm0-5.625H28.25v-3.749h1.875v3.75zm0-5.625H28.25V8.5h1.875v3.75zm0-5.625H28.25V2.874h1.875v3.75z"/><path fill="#32393f" style="fill:var(--color4,#32393f)" d="M16 2.875h10.375v26.251H16v1.875h16V1H16v1.875zm12.25 0h1.874v3.75H28.25V2.874zm0 5.625h1.874v3.75H28.25V8.5zm0 5.625h1.874v3.75H28.25v-3.749zm0 5.625h1.874v3.75H28.25v-3.75zm0 5.625h1.874v3.75H28.25v-3.75z"/></symbol><symbol id="chevron-left" viewBox="0 0 24 24"><path d="M15.707 17.293 10.414 12l5.293-5.293a.999.999 0 1 0-1.414-1.414l-6 6a.999.999 0 0 0 0 1.414l6 6a.999.999 0 1 0 1.414-1.414z"/></symbol><symbol id="chevron-right" viewBox="0 0 24 24"><path d="m9.707 18.707 6-6a.999.999 0 0 0 0-1.414l-6-6a.999.999 0 1 0-1.414 1.414L13.586 12l-5.293 5.293a.999.999 0 1 0 1.414 1.414z"/></symbol></defs></svg>