<svg xmlns="http://www.w3.org/2000/svg" width="56" height="56" fill="none"><path fill="#FF6B01" d="M8.203 3.39h39.594v49.22H8.203V3.39Z"/><path fill="#FF6B01" d="M28 3.39h19.797v49.22H28V3.39Z"/><path fill="#F0F7FF" d="M28 41.125c-7.239 0-13.125-5.888-13.125-13.125S20.761 14.875 28 14.875 41.125 20.763 41.125 28 35.239 41.125 28 41.125Z"/><path fill="#FF6B01" d="M24.719 36.203V19.797L35.655 28 24.72 36.203Z"/><path fill="#FF6B01" d="M28 33.742 35.655 28 28 22.258v11.484Z"/><path fill="#F0F7FF" d="M1.64 3.39h6.563v49.22H1.641V3.39Z"/><path fill="#DFE7F4" d="M47.797 3.39h6.562v49.22h-6.562V3.39Z"/><path fill="#32393F" d="M0 1.75v52.5h56V1.75H0Zm6.563 49.219H3.28v-6.563h3.281v6.563Zm0-9.844H3.28v-6.563h3.281v6.563Zm0-9.844H3.28V24.72h3.281v6.562Zm0-9.843H3.28v-6.563h3.281v6.563Zm0-9.844H3.28V5.03h3.281v6.563Zm39.593 39.375H9.844V5.03h36.312V50.97Zm6.563 0h-3.282v-6.563h3.282v6.563Zm0-9.844h-3.282v-6.563h3.282v6.563Zm0-9.844h-3.282V24.72h3.282v6.562Zm0-9.843h-3.282v-6.563h3.282v6.563Zm0-9.844h-3.282V5.03h3.282v6.563Z"/><path fill="#32393F" d="M28 5.031h18.156V50.97H28v3.281h28V1.75H28v3.281Zm21.438 0h3.28v6.563h-3.28V5.03Zm0 9.844h3.28v6.563h-3.28v-6.563Zm0 9.844h3.28v6.562h-3.28V24.72Zm0 9.843h3.28v6.563h-3.28v-6.563Zm0 9.844h3.28v6.563h-3.28v-6.563Z"/></svg>